<svg xmlns="http://www.w3.org/2000/svg" viewBox="0 0 318 860" width="100%" height="100%">
  <!-- Generated from girls_9.png -->
  <path d="M 90 100 L 89 99 L 88 100 L 87 100 L 86 101 L 85 102 L 84 103 L 83 104 L 83 105 L 82 106 L 81 105 L 81 104 L 81 103 L 81 102 L 82 101 L 82 100 L 83 99 L 84 99 L 85 98 L 86 97 L 87 96 L 88 95 L 89 94 L 89 93 L 90 92 L 90 91 L 91 90 L 91 89 L 92 88 L 92 87 L 92 86 L 93 85 L 93 84 L 93 83 L 93 82 L 94 81 L 94 80 L 94 79 L 94 78 L 94 77 L 94 76 L 94 75 L 95 74 L 95 73 L 95 72 L 95 71 L 95 70 L 95 69 L 96 68 L 96 67 L 96 66 L 96 65 L 96 64 L 96 63 L 97 62 L 97 61 L 97 60 L 97 59 L 97 58 L 97 57 L 98 56 L 98 55 L 98 54 L 98 53 L 98 52 L 99 51 L 99 50 L 99 49 L 99 48 L 99 47 L 100 46 L 100 45 L 100 44 L 100 43 L 100 42 L 101 41 L 101 40 L 101 39 L 101 38 L 102 37 L 102 36 L 102 35 L 103 34 L 103 33 L 103 32 L 104 31 L 104 30 L 105 29 L 105 28 L 106 27 L 106 26 L 107 25 L 108 24 L 109 23 L 109 22 L 110 21 L 111 20 L 112 19 L 112 18 L 113 17 L 114 16 L 115 15 L 116 14 L 117 13 L 118 12 L 119 12 L 120 11 L 121 10 L 122 9 L 123 9 L 124 8 L 125 8 L 126 7 L 127 7 L 128 6 L 129 6 L 130 5 L 131 5 L 132 4 L 133 4 L 134 4 L 135 3 L 136 3 L 137 3 L 138 2 L 139 2 L 140 2 L 141 2 L 142 1 L 143 1 L 144 1 L 145 1 L 146 1 L 147 0 L 148 0 L 149 0 L 150 0 L 151 0 L 152 0 L 153 0 L 154 0 L 155 0 L 156 0 L 157 0 L 158 0 L 159 0 L 160 0 L 161 0 L 162 0 L 163 0 L 164 0 L 165 1 L 166 1 L 167 1 L 168 2 L 169 2 L 170 2 L 171 3 L 172 4 L 173 4 L 174 5 L 175 6 L 176 7 L 177 8 L 178 9 L 179 10 L 180 11 L 181 12 L 182 13 L 183 14 L 184 15 L 184 16 L 185 17 L 186 18 L 187 19 L 187 20 L 188 21 L 189 22 L 190 23 L 190 24 L 191 25 L 192 26 L 193 27 L 193 28 L 194 29 L 195 30 L 195 31 L 196 32 L 196 33 L 197 34 L 197 35 L 198 36 L 198 37 L 199 38 L 199 39 L 200 40 L 200 41 L 200 42 L 201 43 L 201 44 L 201 45 L 201 46 L 201 47 L 202 48 L 202 49 L 202 50 L 202 51 L 202 52 L 202 53 L 202 54 L 202 55 L 202 56 L 203 57 L 203 58 L 203 59 L 203 60 L 203 61 L 203 62 L 203 63 L 203 64 L 203 65 L 203 66 L 203 67 L 204 68 L 204 69 L 204 70 L 204 71 L 204 72 L 205 73 L 205 74 L 205 75 L 206 76 L 206 77 L 206 78 L 207 79 L 207 80 L 208 81 L 208 82 L 209 83 L 209 84 L 209 85 L 210 86 L 210 87 L 211 88 L 211 89 L 212 90 L 212 91 L 213 92 L 213 93 L 214 94 L 214 95 L 215 96 L 215 97 L 215 98 L 215 99 L 216 100 L 216 101 L 216 102 L 216 103 L 216 104 L 216 105 L 216 106 L 216 107 L 216 108 L 216 109 L 215 110 L 215 111 L 215 112 L 215 113 L 214 114 L 214 115 L 214 116 L 213 117 L 213 118 L 213 119 L 212 120 L 212 121 L 212 122 L 211 123 L 211 124 L 211 125 L 211 126 L 210 127 L 210 128 L 210 129 L 210 130 L 210 131 L 210 132 L 210 133 L 210 134 L 211 135 L 211 136 L 211 137 L 212 138 L 213 139 L 214 139 L 215 140 L 216 140 L 217 141 L 218 141 L 219 142 L 220 142 L 221 142 L 222 143 L 223 143 L 224 143 L 225 144 L 226 144 L 227 145 L 228 145 L 229 146 L 230 146 L 230 147 L 231 148 L 232 149 L 232 150 L 232 151 L 232 152 L 233 153 L 233 154 L 233 155 L 233 156 L 233 157 L 233 158 L 233 159 L 233 160 L 233 161 L 232 162 L 232 163 L 232 164 L 232 165 L 233 166 L 233 167 L 233 168 L 234 169 L 234 170 L 234 171 L 234 172 L 234 173 L 235 174 L 235 175 L 235 176 L 235 177 L 235 178 L 236 179 L 236 180 L 236 181 L 236 182 L 236 183 L 236 184 L 236 185 L 236 186 L 236 187 L 236 188 L 236 189 L 236 190 L 236 191 L 236 192 L 236 193 L 236 194 L 236 195 L 236 196 L 237 197 L 238 197 L 239 197 L 240 198 L 241 198 L 242 199 L 243 200 L 244 201 L 245 202 L 246 203 L 247 204 L 247 205 L 248 206 L 248 207 L 249 208 L 249 209 L 249 210 L 249 211 L 249 212 L 249 213 L 249 214 L 249 215 L 248 216 L 248 217 L 248 218 L 247 219 L 247 220 L 247 221 L 247 222 L 246 223 L 246 224 L 246 225 L 246 226 L 246 227 L 246 228 L 246 229 L 246 228 L 245 227 L 245 226 L 245 225 L 245 224 L 245 223 L 245 222 L 245 221 L 245 220 L 246 219 L 246 218 L 246 217 L 246 216 L 246 215 L 246 214 L 246 213 L 246 212 L 246 211 L 246 210 L 246 209 L 246 208 L 245 207 L 245 206 L 244 205 L 243 205 L 242 204 L 241 204 L 240 204 L 239 204 L 238 205 L 238 206 L 238 207 L 238 208 L 238 209 L 238 210 L 238 211 L 238 212 L 238 213 L 238 214 L 238 215 L 238 216 L 238 217 L 238 218 L 238 219 L 239 220 L 239 221 L 239 222 L 239 223 L 239 224 L 239 225 L 239 226 L 239 227 L 239 228 L 239 229 L 239 230 L 239 231 L 239 232 L 239 233 L 239 234 L 239 235 L 239 236 L 239 237 L 240 238 L 240 239 L 240 240 L 240 241 L 240 242 L 240 243 L 240 244 L 240 245 L 240 246 L 240 247 L 240 248 L 240 249 L 241 250 L 241 251 L 241 252 L 241 253 L 241 254 L 241 255 L 241 256 L 241 257 L 241 258 L 242 259 L 242 260 L 242 261 L 242 262 L 242 263 L 242 264 L 242 265 L 243 266 L 243 267 L 243 268 L 243 269 L 243 270 L 243 271 L 244 272 L 244 273 L 244 274 L 244 275 L 245 276 L 245 277 L 245 278 L 245 279 L 246 280 L 246 281 L 246 282 L 247 283 L 247 284 L 247 285 L 248 286 L 248 287 L 249 288 L 249 289 L 250 290 L 250 291 L 251 292 L 251 293 L 252 294 L 252 295 L 252 296 L 253 297 L 253 298 L 253 299 L 254 300 L 254 301 L 255 302 L 255 303 L 255 304 L 255 305 L 256 306 L 256 307 L 256 308 L 257 309 L 257 310 L 257 311 L 257 312 L 258 313 L 258 314 L 258 315 L 258 316 L 259 317 L 259 318 L 259 319 L 259 320 L 260 321 L 260 322 L 260 323 L 260 324 L 260 325 L 260 326 L 261 327 L 261 328 L 261 329 L 261 330 L 261 331 L 262 332 L 262 333 L 262 334 L 262 335 L 262 336 L 262 337 L 263 338 L 263 339 L 263 340 L 263 341 L 263 342 L 263 343 L 264 344 L 264 345 L 264 346 L 264 347 L 264 348 L 265 349 L 265 350 L 265 351 L 265 352 L 265 353 L 266 354 L 266 355 L 266 356 L 266 357 L 266 358 L 267 359 L 267 360 L 267 361 L 267 362 L 267 363 L 268 364 L 268 365 L 268 366 L 268 367 L 268 368 L 269 369 L 269 370 L 269 371 L 269 372 L 270 373 L 270 374 L 270 375 L 270 376 L 271 377 L 271 378 L 271 379 L 271 380 L 271 381 L 272 382 L 272 383 L 272 384 L 273 385 L 273 386 L 273 387 L 273 388 L 274 389 L 274 390 L 274 391 L 275 392 L 275 393 L 275 394 L 275 395 L 276 396 L 276 397 L 276 398 L 277 399 L 277 400 L 277 401 L 278 402 L 278 403 L 278 404 L 279 405 L 279 406 L 279 407 L 280 408 L 280 409 L 281 410 L 281 411 L 281 412 L 282 413 L 282 414 L 283 415 L 284 416 L 284 417 L 285 418 L 286 419 L 287 420 L 288 421 L 289 422 L 290 423 L 291 424 L 292 424 L 293 425 L 294 426 L 295 426 L 296 427 L 297 428 L 298 428 L 299 429 L 300 429 L 301 430 L 302 430 L 303 431 L 304 431 L 305 431 L 306 432 L 307 433 L 308 434 L 309 435 L 309 436 L 310 437 L 310 438 L 311 439 L 311 440 L 312 441 L 312 442 L 313 443 L 313 444 L 313 445 L 314 446 L 314 447 L 314 448 L 314 449 L 315 450 L 315 451 L 315 452 L 315 453 L 316 454 L 316 455 L 317 456 L 317 457 L 317 458 L 317 459 L 317 460 L 317 461 L 316 461 L 315 461 L 314 461 L 313 462 L 313 463 L 313 464 L 313 465 L 312 466 L 312 467 L 312 468 L 311 468 L 310 468 L 309 467 L 309 466 L 308 465 L 308 464 L 308 463 L 308 462 L 307 461 L 306 460 L 305 459 L 304 459 L 303 460 L 302 460 L 301 461 L 300 462 L 299 463 L 298 463 L 297 464 L 297 463 L 297 462 L 298 461 L 298 460 L 297 459 L 296 460 L 295 461 L 294 462 L 293 463 L 292 464 L 291 464 L 290 464 L 289 464 L 288 464 L 287 464 L 286 464 L 285 463 L 285 462 L 285 461 L 285 460 L 285 459 L 285 458 L 284 457 L 284 456 L 284 455 L 283 454 L 283 453 L 282 452 L 282 451 L 282 450 L 281 449 L 281 448 L 280 447 L 279 446 L 279 445 L 278 444 L 278 443 L 277 442 L 276 441 L 275 440 L 275 439 L 274 438 L 273 437 L 272 437 L 271 436 L 271 435 L 270 434 L 269 433 L 269 432 L 268 431 L 268 430 L 268 429 L 268 428 L 267 427 L 267 426 L 267 425 L 267 424 L 266 423 L 266 422 L 266 421 L 265 420 L 265 419 L 265 418 L 264 417 L 264 416 L 263 415 L 263 414 L 263 413 L 262 412 L 262 411 L 262 410 L 261 409 L 261 408 L 260 407 L 260 406 L 259 405 L 259 404 L 259 403 L 258 402 L 258 401 L 257 400 L 257 399 L 257 398 L 256 397 L 256 396 L 255 395 L 255 394 L 254 393 L 254 392 L 253 391 L 253 390 L 252 389 L 252 388 L 251 387 L 251 386 L 250 385 L 249 384 L 249 383 L 248 382 L 248 381 L 247 380 L 247 379 L 246 378 L 246 377 L 245 376 L 245 375 L 244 374 L 244 373 L 243 372 L 243 371 L 242 370 L 242 369 L 241 368 L 241 367 L 240 366 L 240 365 L 239 364 L 239 363 L 238 362 L 238 361 L 237 360 L 237 359 L 236 358 L 236 357 L 236 356 L 235 355 L 235 354 L 234 353 L 234 352 L 233 351 L 233 350 L 232 349 L 232 348 L 231 347 L 231 346 L 231 345 L 230 344 L 230 343 L 229 342 L 229 341 L 228 340 L 228 339 L 228 338 L 227 337 L 227 336 L 226 335 L 226 334 L 226 333 L 225 332 L 225 331 L 225 330 L 224 329 L 224 328 L 223 327 L 223 326 L 223 325 L 222 324 L 222 323 L 222 322 L 222 321 L 221 320 L 221 319 L 221 318 L 220 317 L 220 316 L 220 315 L 220 314 L 220 313 L 220 312 L 219 311 L 219 310 L 219 309 L 219 308 L 219 307 L 219 306 L 219 305 L 218 304 L 218 303 L 218 302 L 218 301 L 218 300 L 218 299 L 218 298 L 218 297 L 218 296 L 217 295 L 217 294 L 217 293 L 217 292 L 217 291 L 217 290 L 216 289 L 216 288 L 216 287 L 216 286 L 215 285 L 215 284 L 215 283 L 215 282 L 214 281 L 214 280 L 213 279 L 213 278 L 212 277 L 212 276 L 212 275 L 211 274 L 211 273 L 211 272 L 210 271 L 210 270 L 210 269 L 210 268 L 209 267 L 209 266 L 209 265 L 209 264 L 209 263 L 208 262 L 208 261 L 208 260 L 208 259 L 208 258 L 207 257 L 207 256 L 207 255 L 207 254 L 207 253 L 207 252 L 206 251 L 206 250 L 206 249 L 206 248 L 206 247 L 206 246 L 205 245 L 205 244 L 205 243 L 205 242 L 205 241 L 205 240 L 205 239 L 205 238 L 205 237 L 204 236 L 203 235 L 202 236 L 201 237 L 200 238 L 200 239 L 199 240 L 198 241 L 197 242 L 197 243 L 196 244 L 195 245 L 195 246 L 194 247 L 194 248 L 194 249 L 193 250 L 193 251 L 192 252 L 192 253 L 191 254 L 191 255 L 191 256 L 191 257 L 190 258 L 190 259 L 190 260 L 190 261 L 189 262 L 189 263 L 189 264 L 189 265 L 188 266 L 188 267 L 188 268 L 188 269 L 187 270 L 187 271 L 187 272 L 186 273 L 186 274 L 186 275 L 186 276 L 186 277 L 185 278 L 185 279 L 185 280 L 185 281 L 185 282 L 185 283 L 184 284 L 184 285 L 184 286 L 184 287 L 184 288 L 184 289 L 184 290 L 184 291 L 185 292 L 185 293 L 185 294 L 185 295 L 185 296 L 186 297 L 186 298 L 186 299 L 187 300 L 187 301 L 188 302 L 189 303 L 189 304 L 190 305 L 191 306 L 192 307 L 192 308 L 193 309 L 194 310 L 195 311 L 196 312 L 196 313 L 197 314 L 198 315 L 199 316 L 200 317 L 201 318 L 201 319 L 202 320 L 203 321 L 203 322 L 204 323 L 205 324 L 206 325 L 206 326 L 207 327 L 208 328 L 208 329 L 209 330 L 209 331 L 210 332 L 211 333 L 211 334 L 212 335 L 212 336 L 213 337 L 214 338 L 214 339 L 215 340 L 215 341 L 216 342 L 216 343 L 217 344 L 217 345 L 218 346 L 218 347 L 219 348 L 219 349 L 220 350 L 220 351 L 221 352 L 221 353 L 222 354 L 222 355 L 223 356 L 223 357 L 223 358 L 224 359 L 224 360 L 225 361 L 225 362 L 225 363 L 226 364 L 226 365 L 227 366 L 227 367 L 227 368 L 228 369 L 228 370 L 228 371 L 229 372 L 229 373 L 229 374 L 230 375 L 230 376 L 230 377 L 231 378 L 231 379 L 231 380 L 231 381 L 232 382 L 232 383 L 232 384 L 233 385 L 233 386 L 233 387 L 233 388 L 233 389 L 234 390 L 234 391 L 234 392 L 234 393 L 234 394 L 235 395 L 235 396 L 235 397 L 235 398 L 235 399 L 235 400 L 236 401 L 236 402 L 236 403 L 236 404 L 236 405 L 236 406 L 236 407 L 236 408 L 237 409 L 237 410 L 237 411 L 237 412 L 237 413 L 237 414 L 237 415 L 237 416 L 237 417 L 237 418 L 237 419 L 237 420 L 237 421 L 237 422 L 237 423 L 237 424 L 237 425 L 238 426 L 238 427 L 238 428 L 238 429 L 238 430 L 238 431 L 238 432 L 238 433 L 237 434 L 237 435 L 237 436 L 237 437 L 237 438 L 237 439 L 237 440 L 237 441 L 237 442 L 237 443 L 237 444 L 237 445 L 237 446 L 237 447 L 237 448 L 237 449 L 237 450 L 236 451 L 236 452 L 236 453 L 236 454 L 236 455 L 236 456 L 236 457 L 236 458 L 236 459 L 235 460 L 235 461 L 235 462 L 235 463 L 235 464 L 234 465 L 234 466 L 234 467 L 234 468 L 234 469 L 233 470 L 233 471 L 233 472 L 233 473 L 232 474 L 232 475 L 232 476 L 232 477 L 231 478 L 231 479 L 231 480 L 231 481 L 230 482 L 230 483 L 230 484 L 230 485 L 229 486 L 229 487 L 229 488 L 229 489 L 229 490 L 228 491 L 228 492 L 228 493 L 228 494 L 228 495 L 227 496 L 227 497 L 227 498 L 227 499 L 227 500 L 227 501 L 226 502 L 226 503 L 226 504 L 226 505 L 226 506 L 226 507 L 226 508 L 225 509 L 225 510 L 225 511 L 225 512 L 225 513 L 225 514 L 225 515 L 224 516 L 224 517 L 224 518 L 224 519 L 224 520 L 224 521 L 224 522 L 224 523 L 224 524 L 223 525 L 223 526 L 223 527 L 223 528 L 223 529 L 223 530 L 223 531 L 223 532 L 223 533 L 222 534 L 222 535 L 222 536 L 222 537 L 222 538 L 222 539 L 222 540 L 222 541 L 222 542 L 222 543 L 222 544 L 222 545 L 222 546 L 222 547 L 222 548 L 222 549 L 221 550 L 221 551 L 221 552 L 221 553 L 221 554 L 221 555 L 221 556 L 221 557 L 221 558 L 221 559 L 221 560 L 221 561 L 221 562 L 222 563 L 222 564 L 222 565 L 222 566 L 222 567 L 222 568 L 222 569 L 222 570 L 223 571 L 223 572 L 223 573 L 223 574 L 223 575 L 223 576 L 224 577 L 224 578 L 224 579 L 224 580 L 224 581 L 225 582 L 225 583 L 225 584 L 225 585 L 225 586 L 226 587 L 226 588 L 226 589 L 226 590 L 226 591 L 226 592 L 227 593 L 227 594 L 227 595 L 227 596 L 227 597 L 227 598 L 228 599 L 228 600 L 228 601 L 228 602 L 228 603 L 228 604 L 228 605 L 228 606 L 229 607 L 229 608 L 229 609 L 229 610 L 229 611 L 229 612 L 229 613 L 229 614 L 229 615 L 229 616 L 229 617 L 229 618 L 229 619 L 229 620 L 229 621 L 229 622 L 229 623 L 229 624 L 229 625 L 229 626 L 229 627 L 229 628 L 229 629 L 229 630 L 229 631 L 229 632 L 228 633 L 228 634 L 228 635 L 228 636 L 228 637 L 228 638 L 227 639 L 227 640 L 227 641 L 227 642 L 227 643 L 226 644 L 226 645 L 226 646 L 226 647 L 226 648 L 225 649 L 225 650 L 225 651 L 225 652 L 225 653 L 224 654 L 224 655 L 224 656 L 224 657 L 224 658 L 223 659 L 223 660 L 223 661 L 223 662 L 223 663 L 222 664 L 222 665 L 222 666 L 222 667 L 222 668 L 222 669 L 221 670 L 221 671 L 221 672 L 221 673 L 221 674 L 220 675 L 220 676 L 220 677 L 220 678 L 220 679 L 220 680 L 219 681 L 219 682 L 219 683 L 219 684 L 219 685 L 219 686 L 218 687 L 218 688 L 218 689 L 218 690 L 218 691 L 218 692 L 217 693 L 217 694 L 217 695 L 217 696 L 217 697 L 217 698 L 216 699 L 216 700 L 216 701 L 216 702 L 216 703 L 216 704 L 215 705 L 215 706 L 215 707 L 215 708 L 215 709 L 215 710 L 214 711 L 214 712 L 214 713 L 214 714 L 214 715 L 214 716 L 214 717 L 213 718 L 213 719 L 213 720 L 213 721 L 213 722 L 213 723 L 212 724 L 212 725 L 212 726 L 212 727 L 212 728 L 212 729 L 212 730 L 211 731 L 211 732 L 211 733 L 211 734 L 211 735 L 210 736 L 210 737 L 210 738 L 210 739 L 210 740 L 209 741 L 209 742 L 209 743 L 209 744 L 209 745 L 208 746 L 208 747 L 208 748 L 208 749 L 208 750 L 207 751 L 207 752 L 207 753 L 207 754 L 207 755 L 207 756 L 207 757 L 206 758 L 206 759 L 206 760 L 206 761 L 206 762 L 206 763 L 206 764 L 206 765 L 206 766 L 206 767 L 206 768 L 206 769 L 206 770 L 206 771 L 206 772 L 206 773 L 206 774 L 206 775 L 206 776 L 206 777 L 207 778 L 207 779 L 207 780 L 207 781 L 207 782 L 207 783 L 207 784 L 207 785 L 208 786 L 208 787 L 208 788 L 208 789 L 208 790 L 208 791 L 208 792 L 208 793 L 208 794 L 208 795 L 208 796 L 208 797 L 208 798 L 208 799 L 208 800 L 208 801 L 208 802 L 208 803 L 208 804 L 208 805 L 208 806 L 208 807 L 208 808 L 207 809 L 207 810 L 207 811 L 207 812 L 207 813 L 207 814 L 207 815 L 207 816 L 207 817 L 207 818 L 207 819 L 207 820 L 207 821 L 207 822 L 206 823 L 206 824 L 206 825 L 206 826 L 206 827 L 206 828 L 206 829 L 205 830 L 204 830 L 203 830 L 202 831 L 202 832 L 203 833 L 203 834 L 203 835 L 202 836 L 202 837 L 202 838 L 202 839 L 202 840 L 202 841 L 202 842 L 202 843 L 202 844 L 201 845 L 201 846 L 201 847 L 201 848 L 200 849 L 200 850 L 199 851 L 199 852 L 198 853 L 198 854 L 197 855 L 196 856 L 195 857 L 194 857 L 193 858 L 192 858 L 191 859 L 190 859 L 189 859 L 188 859 L 187 859 L 186 859 L 185 859 L 184 859 L 183 859 L 182 859 L 181 859 L 180 859 L 179 859 L 178 859 L 177 859 L 176 859 L 175 858 L 174 858 L 173 858 L 172 858 L 171 858 L 170 857 L 169 857 L 168 857 L 167 856 L 166 856 L 165 855 L 164 855 L 163 854 L 163 853 L 163 852 L 162 851 L 162 850 L 162 849 L 162 848 L 163 847 L 163 846 L 163 845 L 164 844 L 164 843 L 165 842 L 165 841 L 165 840 L 166 839 L 166 838 L 166 837 L 167 836 L 167 835 L 167 834 L 168 833 L 168 832 L 168 831 L 168 830 L 168 829 L 168 828 L 169 827 L 169 826 L 169 825 L 169 824 L 169 823 L 169 822 L 169 821 L 169 820 L 170 819 L 170 818 L 170 817 L 170 816 L 170 815 L 171 814 L 171 813 L 171 812 L 171 811 L 172 810 L 172 809 L 172 808 L 172 807 L 173 806 L 173 805 L 173 804 L 173 803 L 174 802 L 174 801 L 174 800 L 175 799 L 175 798 L 175 797 L 176 796 L 176 795 L 176 794 L 177 793 L 177 792 L 178 791 L 178 790 L 178 789 L 179 788 L 179 787 L 179 786 L 180 785 L 180 784 L 180 783 L 180 782 L 181 781 L 181 780 L 181 779 L 182 778 L 182 777 L 182 776 L 182 775 L 182 774 L 183 773 L 183 772 L 183 771 L 183 770 L 183 769 L 183 768 L 183 767 L 184 766 L 184 765 L 184 764 L 184 763 L 184 762 L 184 761 L 184 760 L 184 759 L 184 758 L 184 757 L 184 756 L 184 755 L 184 754 L 184 753 L 184 752 L 184 751 L 184 750 L 184 749 L 184 748 L 184 747 L 184 746 L 184 745 L 184 744 L 184 743 L 184 742 L 184 741 L 184 740 L 184 739 L 184 738 L 184 737 L 184 736 L 184 735 L 184 734 L 184 733 L 184 732 L 184 731 L 184 730 L 184 729 L 184 728 L 184 727 L 184 726 L 184 725 L 184 724 L 184 723 L 184 722 L 184 721 L 184 720 L 184 719 L 184 718 L 184 717 L 184 716 L 184 715 L 184 714 L 184 713 L 184 712 L 184 711 L 184 710 L 184 709 L 184 708 L 184 707 L 184 706 L 184 705 L 184 704 L 184 703 L 184 702 L 184 701 L 184 700 L 184 699 L 184 698 L 184 697 L 184 696 L 184 695 L 184 694 L 184 693 L 184 692 L 184 691 L 184 690 L 184 689 L 184 688 L 184 687 L 184 686 L 184 685 L 184 684 L 184 683 L 184 682 L 184 681 L 184 680 L 184 679 L 184 678 L 184 677 L 184 676 L 184 675 L 184 674 L 184 673 L 184 672 L 184 671 L 184 670 L 184 669 L 184 668 L 184 667 L 184 666 L 184 665 L 184 664 L 184 663 L 184 662 L 184 661 L 184 660 L 184 659 L 184 658 L 184 657 L 184 656 L 184 655 L 184 654 L 184 653 L 184 652 L 184 651 L 184 650 L 184 649 L 184 648 L 184 647 L 184 646 L 184 645 L 184 644 L 184 643 L 184 642 L 184 641 L 184 640 L 184 639 L 184 638 L 184 637 L 184 636 L 184 635 L 184 634 L 184 633 L 184 632 L 184 631 L 184 630 L 184 629 L 184 628 L 184 627 L 184 626 L 184 625 L 184 624 L 184 623 L 184 622 L 183 621 L 183 620 L 183 619 L 183 618 L 182 617 L 182 616 L 182 615 L 181 614 L 181 613 L 181 612 L 180 611 L 180 610 L 180 609 L 179 608 L 179 607 L 179 606 L 178 605 L 178 604 L 178 603 L 178 602 L 177 601 L 177 600 L 177 599 L 177 598 L 176 597 L 176 596 L 176 595 L 176 594 L 175 593 L 175 592 L 175 591 L 175 590 L 174 589 L 174 588 L 174 587 L 174 586 L 174 585 L 173 584 L 173 583 L 173 582 L 173 581 L 173 580 L 172 579 L 172 578 L 172 577 L 172 576 L 172 575 L 171 574 L 171 573 L 171 572 L 171 571 L 171 570 L 171 569 L 170 568 L 170 567 L 170 566 L 170 565 L 170 564 L 170 563 L 170 562 L 169 561 L 169 560 L 169 559 L 169 558 L 169 557 L 169 556 L 169 555 L 169 554 L 169 553 L 169 552 L 169 551 L 168 550 L 168 549 L 168 548 L 168 547 L 168 546 L 168 545 L 168 544 L 168 543 L 168 542 L 168 541 L 168 540 L 168 539 L 168 538 L 168 537 L 168 536 L 168 535 L 168 534 L 168 533 L 168 532 L 168 531 L 168 530 L 168 529 L 168 528 L 168 527 L 168 526 L 168 525 L 168 524 L 168 523 L 167 522 L 167 521 L 167 520 L 167 519 L 167 518 L 167 517 L 167 516 L 167 515 L 167 514 L 167 513 L 167 512 L 167 511 L 167 510 L 167 509 L 166 508 L 166 507 L 166 506 L 166 505 L 166 504 L 166 503 L 166 502 L 166 501 L 166 500 L 166 499 L 166 498 L 166 497 L 165 496 L 165 495 L 165 494 L 165 493 L 165 492 L 165 491 L 165 490 L 165 489 L 165 488 L 165 487 L 164 486 L 164 485 L 164 484 L 164 483 L 164 482 L 163 481 L 163 480 L 163 479 L 163 478 L 163 477 L 162 476 L 162 475 L 162 474 L 162 473 L 162 472 L 161 471 L 161 470 L 161 469 L 161 468 L 161 467 L 160 466 L 160 465 L 160 464 L 160 463 L 160 462 L 159 461 L 159 460 L 159 459 L 159 458 L 159 457 L 159 456 L 159 455 L 158 454 L 158 453 L 158 452 L 158 451 L 158 450 L 157 449 L 156 450 L 155 451 L 154 452 L 154 453 L 153 454 L 152 455 L 151 456 L 150 457 L 150 458 L 149 459 L 148 460 L 147 461 L 147 462 L 146 463 L 145 464 L 144 465 L 144 466 L 143 467 L 142 468 L 142 469 L 141 470 L 140 471 L 139 472 L 139 473 L 138 474 L 137 475 L 136 476 L 136 477 L 135 478 L 134 479 L 134 480 L 133 481 L 132 482 L 131 483 L 131 484 L 130 485 L 129 486 L 129 487 L 128 488 L 127 489 L 127 490 L 126 491 L 125 492 L 125 493 L 124 494 L 123 495 L 122 496 L 122 497 L 121 498 L 120 499 L 120 500 L 119 501 L 118 502 L 118 503 L 117 504 L 116 505 L 116 506 L 115 507 L 114 508 L 114 509 L 113 510 L 113 511 L 112 512 L 111 513 L 111 514 L 110 515 L 109 516 L 109 517 L 108 518 L 107 519 L 107 520 L 106 521 L 106 522 L 105 523 L 104 524 L 104 525 L 103 526 L 103 527 L 102 528 L 102 529 L 101 530 L 100 531 L 100 532 L 99 533 L 99 534 L 98 535 L 97 536 L 97 537 L 96 538 L 95 539 L 95 540 L 94 541 L 93 542 L 93 543 L 92 544 L 91 545 L 91 546 L 90 547 L 89 548 L 89 549 L 88 550 L 87 551 L 87 552 L 86 553 L 85 554 L 85 555 L 84 556 L 83 557 L 83 558 L 82 559 L 81 560 L 81 561 L 80 562 L 79 563 L 79 564 L 78 565 L 78 566 L 77 567 L 76 568 L 76 569 L 75 570 L 75 571 L 74 572 L 74 573 L 73 574 L 73 575 L 72 576 L 71 577 L 71 578 L 71 579 L 70 580 L 70 581 L 69 582 L 69 583 L 68 584 L 68 585 L 68 586 L 67 587 L 67 588 L 67 589 L 67 590 L 66 591 L 66 592 L 66 593 L 66 594 L 66 595 L 66 596 L 66 597 L 66 598 L 66 599 L 66 600 L 66 601 L 66 602 L 66 603 L 66 604 L 66 605 L 66 606 L 67 607 L 67 608 L 67 609 L 67 610 L 67 611 L 67 612 L 67 613 L 67 614 L 67 615 L 67 616 L 67 617 L 67 618 L 68 619 L 68 620 L 68 621 L 68 622 L 68 623 L 68 624 L 68 625 L 68 626 L 68 627 L 68 628 L 68 629 L 68 630 L 68 631 L 68 632 L 68 633 L 68 634 L 68 635 L 68 636 L 68 637 L 68 638 L 68 639 L 68 640 L 67 641 L 67 642 L 67 643 L 67 644 L 67 645 L 67 646 L 67 647 L 67 648 L 67 649 L 66 650 L 66 651 L 66 652 L 66 653 L 66 654 L 66 655 L 65 656 L 65 657 L 65 658 L 65 659 L 64 660 L 64 661 L 64 662 L 63 663 L 63 664 L 62 665 L 62 666 L 62 667 L 61 668 L 61 669 L 61 670 L 60 671 L 60 672 L 60 673 L 59 674 L 59 675 L 59 676 L 59 677 L 58 678 L 58 679 L 58 680 L 58 681 L 57 682 L 57 683 L 57 684 L 57 685 L 56 686 L 56 687 L 56 688 L 56 689 L 56 690 L 55 691 L 55 692 L 55 693 L 55 694 L 55 695 L 55 696 L 54 697 L 54 698 L 54 699 L 54 700 L 54 701 L 54 702 L 54 703 L 54 704 L 53 705 L 53 706 L 53 707 L 53 708 L 53 709 L 53 710 L 53 711 L 53 712 L 53 713 L 53 714 L 53 715 L 52 716 L 52 717 L 52 718 L 52 719 L 52 720 L 52 721 L 52 722 L 52 723 L 52 724 L 52 725 L 52 726 L 52 727 L 52 728 L 52 729 L 52 730 L 53 731 L 53 732 L 53 733 L 53 734 L 53 735 L 53 736 L 53 737 L 53 738 L 54 739 L 54 740 L 54 741 L 54 742 L 54 743 L 55 744 L 55 745 L 55 746 L 56 747 L 56 748 L 56 749 L 57 750 L 57 751 L 57 752 L 58 753 L 58 754 L 59 755 L 59 756 L 60 757 L 60 758 L 61 759 L 61 760 L 62 761 L 62 762 L 63 763 L 63 764 L 64 765 L 64 766 L 65 767 L 65 768 L 65 769 L 66 770 L 66 771 L 66 772 L 67 773 L 67 774 L 67 775 L 67 776 L 67 777 L 67 778 L 67 779 L 67 780 L 67 781 L 67 782 L 67 783 L 66 784 L 66 785 L 66 786 L 66 787 L 66 788 L 65 789 L 65 790 L 65 791 L 65 792 L 64 793 L 64 794 L 64 795 L 64 796 L 64 797 L 63 798 L 63 799 L 63 800 L 63 801 L 63 802 L 63 803 L 63 804 L 63 805 L 63 806 L 63 807 L 63 808 L 63 809 L 63 810 L 63 811 L 62 812 L 62 813 L 62 814 L 62 815 L 62 816 L 62 817 L 62 818 L 62 819 L 62 820 L 62 821 L 62 822 L 62 823 L 62 824 L 62 825 L 62 826 L 62 827 L 62 828 L 62 829 L 62 830 L 62 831 L 62 832 L 62 833 L 62 834 L 62 835 L 62 836 L 62 837 L 62 838 L 63 839 L 63 840 L 62 840 L 61 840 L 60 840 L 59 840 L 59 839 L 59 838 L 59 837 L 59 836 L 59 835 L 59 834 L 59 833 L 59 832 L 59 831 L 59 830 L 59 829 L 59 828 L 59 827 L 59 826 L 58 825 L 58 824 L 58 823 L 58 822 L 57 821 L 57 820 L 56 819 L 55 818 L 54 818 L 53 818 L 52 818 L 51 819 L 50 820 L 49 821 L 49 822 L 49 823 L 48 824 L 48 825 L 48 826 L 47 827 L 47 828 L 47 829 L 47 830 L 47 831 L 47 832 L 47 833 L 47 834 L 47 835 L 47 836 L 47 837 L 47 838 L 47 839 L 47 840 L 46 841 L 46 842 L 46 843 L 46 844 L 46 845 L 46 846 L 45 847 L 45 848 L 44 849 L 44 850 L 43 851 L 42 852 L 42 853 L 41 853 L 40 854 L 39 855 L 38 855 L 37 856 L 36 856 L 35 856 L 34 856 L 33 857 L 32 857 L 31 857 L 30 857 L 29 857 L 28 857 L 27 857 L 26 857 L 25 857 L 24 857 L 23 857 L 22 857 L 21 857 L 20 857 L 19 857 L 18 856 L 17 856 L 16 856 L 15 856 L 14 856 L 13 856 L 12 856 L 11 856 L 10 855 L 9 855 L 8 855 L 7 855 L 6 855 L 5 854 L 4 854 L 3 854 L 2 854 L 1 853 L 1 852 L 0 851 L 1 850 L 1 849 L 1 848 L 2 847 L 2 846 L 3 845 L 4 844 L 5 843 L 6 842 L 7 841 L 8 840 L 9 839 L 10 838 L 11 837 L 12 837 L 13 836 L 13 835 L 14 834 L 15 833 L 16 832 L 16 831 L 17 830 L 18 829 L 18 828 L 19 827 L 19 826 L 20 825 L 20 824 L 21 823 L 21 822 L 21 821 L 22 820 L 22 819 L 22 818 L 22 817 L 22 816 L 23 815 L 23 814 L 23 813 L 23 812 L 23 811 L 23 810 L 23 809 L 23 808 L 23 807 L 23 806 L 23 805 L 23 804 L 23 803 L 23 802 L 23 801 L 23 800 L 23 799 L 23 798 L 23 797 L 23 796 L 23 795 L 23 794 L 23 793 L 23 792 L 23 791 L 24 790 L 24 789 L 24 788 L 24 787 L 24 786 L 24 785 L 24 784 L 24 783 L 24 782 L 24 781 L 24 780 L 24 779 L 24 778 L 24 777 L 24 776 L 25 775 L 25 774 L 25 773 L 25 772 L 25 771 L 25 770 L 25 769 L 25 768 L 25 767 L 26 766 L 26 765 L 26 764 L 26 763 L 26 762 L 26 761 L 26 760 L 26 759 L 26 758 L 26 757 L 26 756 L 26 755 L 26 754 L 26 753 L 26 752 L 26 751 L 26 750 L 26 749 L 26 748 L 26 747 L 26 746 L 26 745 L 26 744 L 26 743 L 26 742 L 26 741 L 26 740 L 25 739 L 25 738 L 25 737 L 25 736 L 25 735 L 25 734 L 25 733 L 25 732 L 25 731 L 25 730 L 25 729 L 25 728 L 25 727 L 25 726 L 24 725 L 24 724 L 24 723 L 24 722 L 24 721 L 24 720 L 24 719 L 24 718 L 24 717 L 24 716 L 23 715 L 23 714 L 23 713 L 23 712 L 23 711 L 23 710 L 23 709 L 23 708 L 22 707 L 22 706 L 22 705 L 22 704 L 22 703 L 22 702 L 22 701 L 22 700 L 22 699 L 22 698 L 21 697 L 21 696 L 21 695 L 21 694 L 21 693 L 21 692 L 21 691 L 21 690 L 21 689 L 20 688 L 20 687 L 20 686 L 20 685 L 20 684 L 20 683 L 20 682 L 20 681 L 20 680 L 20 679 L 20 678 L 19 677 L 19 676 L 19 675 L 19 674 L 19 673 L 19 672 L 19 671 L 19 670 L 19 669 L 19 668 L 19 667 L 19 666 L 19 665 L 18 664 L 18 663 L 18 662 L 18 661 L 18 660 L 18 659 L 18 658 L 18 657 L 18 656 L 18 655 L 18 654 L 18 653 L 18 652 L 18 651 L 18 650 L 17 649 L 17 648 L 17 647 L 17 646 L 17 645 L 17 644 L 17 643 L 17 642 L 17 641 L 17 640 L 17 639 L 17 638 L 17 637 L 17 636 L 17 635 L 17 634 L 17 633 L 17 632 L 17 631 L 16 630 L 16 629 L 16 628 L 16 627 L 16 626 L 16 625 L 16 624 L 16 623 L 16 622 L 16 621 L 16 620 L 16 619 L 16 618 L 16 617 L 16 616 L 16 615 L 16 614 L 16 613 L 16 612 L 16 611 L 16 610 L 16 609 L 16 608 L 16 607 L 16 606 L 16 605 L 16 604 L 16 603 L 16 602 L 17 601 L 17 600 L 17 599 L 17 598 L 17 597 L 17 596 L 17 595 L 17 594 L 17 593 L 17 592 L 17 591 L 17 590 L 17 589 L 17 588 L 17 587 L 17 586 L 17 585 L 17 584 L 17 583 L 17 582 L 17 581 L 17 580 L 17 579 L 17 578 L 17 577 L 17 576 L 17 575 L 17 574 L 17 573 L 17 572 L 17 571 L 17 570 L 17 569 L 17 568 L 18 567 L 18 566 L 18 565 L 18 564 L 18 563 L 18 562 L 18 561 L 18 560 L 18 559 L 19 558 L 19 557 L 19 556 L 19 555 L 20 554 L 20 553 L 20 552 L 20 551 L 21 550 L 21 549 L 22 548 L 22 547 L 23 546 L 23 545 L 24 544 L 24 543 L 24 542 L 25 541 L 25 540 L 26 539 L 26 538 L 27 537 L 27 536 L 27 535 L 28 534 L 28 533 L 29 532 L 29 531 L 29 530 L 30 529 L 30 528 L 30 527 L 31 526 L 31 525 L 31 524 L 32 523 L 32 522 L 33 521 L 33 520 L 33 519 L 33 518 L 34 517 L 34 516 L 35 515 L 35 514 L 35 513 L 36 512 L 36 511 L 36 510 L 37 509 L 37 508 L 37 507 L 38 506 L 38 505 L 38 504 L 39 503 L 39 502 L 39 501 L 39 500 L 40 499 L 40 498 L 40 497 L 41 496 L 41 495 L 41 494 L 42 493 L 42 492 L 42 491 L 43 490 L 43 489 L 43 488 L 44 487 L 44 486 L 44 485 L 44 484 L 45 483 L 45 482 L 45 481 L 45 480 L 44 479 L 43 479 L 42 478 L 42 477 L 42 476 L 42 475 L 43 474 L 43 473 L 43 472 L 44 471 L 44 470 L 44 469 L 45 468 L 45 467 L 45 466 L 45 465 L 46 464 L 46 463 L 46 462 L 46 461 L 47 460 L 47 459 L 47 458 L 47 457 L 47 456 L 48 455 L 48 454 L 48 453 L 48 452 L 48 451 L 49 450 L 49 449 L 49 448 L 49 447 L 49 446 L 49 445 L 49 444 L 50 443 L 50 442 L 50 441 L 50 440 L 50 439 L 50 438 L 50 437 L 50 436 L 50 435 L 51 434 L 51 433 L 51 432 L 51 431 L 51 430 L 51 429 L 51 428 L 51 427 L 52 426 L 52 425 L 52 424 L 52 423 L 52 422 L 53 421 L 53 420 L 53 419 L 54 418 L 54 417 L 54 416 L 55 415 L 55 414 L 55 413 L 56 412 L 56 411 L 56 410 L 56 409 L 57 408 L 57 407 L 57 406 L 57 405 L 57 404 L 57 403 L 57 402 L 57 401 L 57 400 L 57 399 L 57 398 L 57 397 L 57 396 L 57 395 L 57 394 L 57 393 L 57 392 L 56 391 L 56 390 L 56 389 L 56 388 L 56 387 L 56 386 L 56 385 L 56 384 L 56 383 L 56 382 L 56 381 L 56 380 L 55 379 L 55 378 L 55 377 L 55 376 L 55 375 L 55 374 L 55 373 L 55 372 L 55 371 L 55 370 L 55 369 L 55 368 L 55 367 L 55 366 L 55 365 L 55 364 L 55 363 L 55 362 L 55 361 L 55 360 L 55 359 L 55 358 L 55 357 L 55 356 L 55 355 L 55 354 L 55 353 L 55 352 L 55 351 L 54 350 L 54 349 L 54 348 L 54 347 L 54 346 L 54 345 L 54 344 L 54 343 L 54 342 L 54 341 L 54 340 L 54 339 L 54 338 L 54 337 L 54 336 L 54 335 L 54 334 L 54 333 L 53 332 L 53 331 L 53 330 L 53 329 L 53 328 L 53 327 L 53 326 L 53 325 L 53 324 L 53 323 L 52 322 L 52 321 L 52 320 L 52 319 L 52 318 L 52 317 L 52 316 L 52 315 L 52 314 L 52 313 L 51 312 L 51 311 L 51 310 L 51 309 L 51 308 L 51 307 L 51 306 L 51 305 L 51 304 L 51 303 L 51 302 L 51 301 L 51 300 L 51 299 L 51 298 L 51 297 L 51 296 L 51 295 L 51 294 L 51 293 L 51 292 L 51 291 L 51 290 L 51 289 L 51 288 L 51 287 L 52 286 L 52 285 L 52 284 L 52 283 L 52 282 L 53 281 L 53 280 L 53 279 L 54 278 L 54 277 L 54 276 L 54 275 L 54 274 L 55 273 L 55 272 L 55 271 L 55 270 L 55 269 L 56 268 L 56 267 L 56 266 L 56 265 L 56 264 L 56 263 L 56 262 L 56 261 L 57 260 L 57 259 L 57 258 L 57 257 L 57 256 L 57 255 L 57 254 L 57 253 L 57 252 L 57 251 L 57 250 L 57 249 L 57 248 L 57 247 L 57 246 L 57 245 L 57 244 L 57 243 L 57 242 L 57 241 L 57 240 L 57 239 L 57 238 L 57 237 L 57 236 L 57 235 L 57 234 L 57 233 L 57 232 L 57 231 L 57 230 L 57 229 L 57 228 L 57 227 L 57 226 L 57 225 L 57 224 L 57 223 L 57 222 L 57 221 L 57 220 L 57 219 L 57 218 L 57 217 L 57 216 L 56 215 L 56 214 L 56 213 L 56 212 L 56 211 L 56 210 L 56 209 L 56 208 L 56 207 L 56 206 L 56 205 L 56 204 L 56 203 L 56 202 L 56 201 L 56 200 L 56 199 L 56 198 L 56 197 L 56 196 L 56 195 L 56 194 L 56 193 L 56 192 L 56 191 L 57 190 L 57 189 L 57 188 L 57 187 L 57 186 L 57 185 L 57 184 L 57 183 L 57 182 L 58 181 L 58 180 L 58 179 L 58 178 L 58 177 L 58 176 L 58 175 L 59 174 L 59 173 L 59 172 L 59 171 L 59 170 L 59 169 L 60 168 L 60 167 L 60 166 L 60 165 L 60 164 L 61 163 L 61 162 L 61 161 L 62 160 L 62 159 L 62 158 L 62 157 L 63 156 L 63 155 L 63 154 L 64 153 L 64 152 L 65 151 L 65 150 L 66 149 L 66 148 L 67 147 L 68 146 L 69 145 L 70 145 L 71 144 L 72 143 L 73 142 L 74 142 L 75 141 L 76 140 L 77 140 L 78 139 L 79 139 L 80 138 L 81 138 L 82 137 L 83 137 L 84 136 L 85 135 L 85 134 L 86 133 L 86 132 L 86 131 L 86 130 L 86 129 L 86 128 L 85 127 L 84 126 L 84 125 L 84 124 L 85 123 L 85 122 L 86 121 L 87 120 L 87 119 L 88 118 L 88 117 L 89 116 L 89 115 L 90 114 L 90 113 L 91 112 L 91 111 L 92 110 L 92 109 L 93 108 L 93 107 L 93 106 L 94 105 L 94 104 L 94 103 L 93 102 L 92 103 L 91 104 L 91 105 L 90 106 L 89 107 L 88 108 L 87 109 L 86 110 L 86 111 L 85 112 L 84 113 L 83 114 L 82 115 L 81 116 L 80 117 L 80 116 L 81 115 L 82 114 L 83 113 L 83 112 L 84 111 L 85 110 L 85 109 L 86 108 L 87 107 L 88 106 L 88 105 L 89 104 L 90 103 L 90 102 L 91 101 L 90 100 Z" fill="currentColor" />
</svg>