<svg xmlns="http://www.w3.org/2000/svg" viewBox="0 0 285 879" width="100%" height="100%">
  <!-- Generated from man_8.png -->
  <path d="M 92 25 L 92 24 L 92 23 L 91 22 L 91 21 L 92 20 L 93 20 L 94 20 L 95 19 L 95 18 L 96 17 L 96 16 L 97 16 L 98 16 L 99 16 L 100 16 L 101 16 L 102 16 L 103 16 L 104 16 L 105 16 L 106 15 L 106 14 L 107 14 L 108 13 L 109 13 L 110 12 L 111 12 L 112 12 L 113 11 L 114 10 L 115 10 L 116 9 L 117 8 L 117 7 L 118 6 L 118 5 L 119 4 L 120 3 L 121 3 L 122 3 L 123 3 L 124 3 L 125 3 L 126 3 L 127 3 L 128 3 L 129 2 L 130 2 L 131 2 L 132 2 L 133 2 L 134 2 L 135 2 L 136 1 L 137 1 L 138 1 L 139 1 L 140 1 L 141 1 L 142 1 L 143 1 L 144 1 L 145 1 L 146 0 L 147 0 L 148 0 L 149 0 L 150 0 L 151 0 L 152 0 L 153 0 L 154 0 L 155 0 L 156 0 L 157 0 L 158 0 L 159 0 L 160 0 L 161 0 L 162 0 L 163 0 L 164 0 L 165 1 L 166 1 L 167 2 L 168 2 L 169 3 L 170 3 L 171 3 L 172 4 L 173 4 L 174 5 L 175 5 L 176 6 L 177 5 L 178 5 L 179 6 L 180 6 L 180 7 L 181 8 L 181 9 L 182 10 L 182 11 L 183 12 L 184 12 L 185 13 L 186 13 L 186 14 L 187 15 L 188 16 L 189 17 L 189 18 L 190 19 L 190 20 L 190 21 L 191 22 L 191 23 L 192 24 L 192 25 L 193 26 L 193 27 L 193 28 L 193 29 L 193 30 L 194 31 L 195 32 L 196 32 L 197 32 L 198 32 L 199 31 L 199 32 L 199 33 L 199 34 L 198 35 L 198 36 L 198 37 L 198 38 L 199 39 L 199 40 L 200 41 L 200 42 L 200 43 L 200 44 L 199 45 L 199 46 L 198 47 L 198 48 L 197 49 L 197 50 L 197 51 L 197 52 L 197 53 L 197 54 L 197 55 L 197 56 L 197 57 L 197 58 L 196 59 L 196 60 L 196 61 L 196 62 L 196 63 L 196 64 L 196 65 L 196 66 L 196 67 L 195 68 L 195 69 L 195 70 L 195 71 L 194 72 L 194 73 L 194 74 L 193 75 L 193 76 L 193 77 L 192 78 L 192 79 L 191 80 L 191 81 L 190 82 L 190 83 L 190 84 L 189 85 L 189 86 L 188 87 L 188 88 L 187 89 L 186 90 L 186 91 L 185 92 L 185 93 L 184 94 L 184 95 L 183 96 L 183 97 L 182 98 L 181 99 L 181 100 L 180 101 L 180 102 L 179 103 L 178 104 L 178 105 L 177 106 L 176 107 L 177 108 L 178 109 L 179 110 L 180 111 L 181 112 L 182 113 L 182 114 L 183 115 L 184 116 L 185 117 L 186 117 L 187 118 L 188 119 L 189 120 L 190 120 L 191 121 L 192 122 L 193 123 L 194 123 L 195 124 L 196 125 L 197 125 L 198 126 L 199 126 L 200 127 L 201 128 L 202 128 L 203 129 L 204 129 L 205 130 L 206 130 L 207 131 L 208 131 L 209 132 L 210 132 L 211 133 L 212 134 L 213 134 L 214 134 L 215 135 L 216 135 L 217 135 L 218 136 L 219 136 L 220 136 L 221 136 L 222 136 L 223 137 L 224 137 L 225 137 L 226 138 L 227 138 L 228 139 L 229 139 L 230 140 L 231 140 L 232 141 L 233 141 L 234 142 L 235 142 L 236 143 L 237 144 L 238 144 L 239 145 L 240 145 L 241 146 L 242 147 L 243 147 L 244 148 L 245 149 L 246 149 L 247 150 L 248 150 L 249 151 L 250 151 L 251 152 L 252 152 L 253 153 L 254 153 L 255 154 L 256 155 L 257 156 L 257 157 L 258 158 L 258 159 L 259 160 L 259 161 L 260 162 L 260 163 L 261 164 L 261 165 L 261 166 L 262 167 L 262 168 L 262 169 L 262 170 L 263 171 L 263 172 L 263 173 L 263 174 L 264 175 L 264 176 L 264 177 L 264 178 L 265 179 L 265 180 L 265 181 L 265 182 L 265 183 L 265 184 L 266 185 L 266 186 L 266 187 L 266 188 L 267 189 L 267 190 L 267 191 L 267 192 L 267 193 L 268 194 L 268 195 L 268 196 L 268 197 L 268 198 L 269 199 L 269 200 L 269 201 L 269 202 L 270 203 L 270 204 L 270 205 L 270 206 L 270 207 L 271 208 L 271 209 L 271 210 L 271 211 L 271 212 L 271 213 L 272 214 L 272 215 L 272 216 L 272 217 L 272 218 L 272 219 L 272 220 L 273 221 L 273 222 L 273 223 L 273 224 L 273 225 L 273 226 L 273 227 L 274 228 L 274 229 L 274 230 L 274 231 L 274 232 L 274 233 L 274 234 L 275 235 L 275 236 L 275 237 L 275 238 L 275 239 L 275 240 L 275 241 L 275 242 L 276 243 L 276 244 L 276 245 L 276 246 L 276 247 L 276 248 L 276 249 L 276 250 L 276 251 L 277 252 L 277 253 L 277 254 L 277 255 L 277 256 L 277 257 L 277 258 L 277 259 L 277 260 L 278 261 L 278 262 L 278 263 L 278 264 L 278 265 L 278 266 L 278 267 L 278 268 L 278 269 L 278 270 L 278 271 L 279 272 L 279 273 L 279 274 L 279 275 L 279 276 L 279 277 L 279 278 L 279 279 L 279 280 L 279 281 L 279 282 L 279 283 L 279 284 L 279 285 L 279 286 L 279 287 L 279 288 L 279 289 L 279 290 L 279 291 L 279 292 L 279 293 L 279 294 L 279 295 L 280 296 L 280 297 L 280 298 L 280 299 L 280 300 L 280 301 L 280 302 L 280 303 L 280 304 L 280 305 L 280 306 L 280 307 L 281 308 L 281 309 L 281 310 L 281 311 L 281 312 L 281 313 L 281 314 L 281 315 L 281 316 L 282 317 L 282 318 L 282 319 L 282 320 L 282 321 L 282 322 L 282 323 L 282 324 L 283 325 L 283 326 L 283 327 L 283 328 L 283 329 L 283 330 L 283 331 L 283 332 L 284 333 L 284 334 L 284 335 L 284 336 L 284 337 L 284 338 L 284 339 L 284 340 L 284 341 L 284 342 L 284 343 L 284 344 L 284 345 L 284 346 L 284 347 L 284 348 L 284 349 L 284 350 L 284 351 L 284 352 L 284 353 L 284 354 L 284 355 L 284 356 L 284 357 L 284 358 L 284 359 L 284 360 L 284 361 L 284 362 L 284 363 L 284 364 L 284 365 L 284 366 L 284 367 L 284 368 L 284 369 L 284 370 L 284 371 L 284 372 L 284 373 L 284 374 L 284 375 L 284 376 L 284 377 L 284 378 L 283 379 L 283 380 L 283 381 L 283 382 L 283 383 L 283 384 L 283 385 L 283 386 L 283 387 L 283 388 L 283 389 L 283 390 L 283 391 L 283 392 L 283 393 L 283 394 L 283 395 L 283 396 L 283 397 L 283 398 L 283 399 L 283 400 L 283 401 L 283 402 L 282 403 L 282 404 L 282 405 L 282 406 L 282 407 L 282 408 L 282 409 L 282 410 L 282 411 L 282 412 L 282 413 L 282 414 L 282 415 L 282 416 L 282 417 L 282 418 L 282 419 L 282 420 L 282 421 L 282 422 L 282 423 L 282 424 L 281 425 L 281 426 L 281 427 L 281 428 L 281 429 L 281 430 L 281 431 L 281 432 L 281 433 L 281 434 L 281 435 L 281 436 L 281 437 L 280 438 L 279 438 L 278 439 L 277 440 L 277 441 L 277 442 L 277 443 L 277 444 L 277 445 L 276 446 L 276 447 L 275 447 L 274 447 L 273 448 L 273 449 L 273 450 L 272 451 L 272 452 L 272 453 L 272 454 L 272 455 L 272 456 L 272 457 L 272 458 L 272 459 L 273 460 L 273 461 L 273 462 L 273 463 L 273 464 L 273 465 L 274 466 L 274 467 L 274 468 L 274 469 L 274 470 L 275 471 L 275 472 L 275 473 L 275 474 L 276 475 L 276 476 L 276 477 L 276 478 L 276 479 L 276 480 L 276 481 L 276 482 L 276 483 L 276 484 L 276 485 L 276 486 L 276 487 L 275 488 L 275 489 L 275 490 L 275 491 L 275 492 L 275 493 L 274 494 L 274 495 L 274 496 L 274 497 L 274 498 L 273 499 L 273 500 L 273 501 L 273 502 L 273 503 L 272 504 L 272 505 L 272 506 L 272 507 L 271 508 L 270 509 L 270 510 L 269 511 L 268 512 L 267 513 L 266 514 L 265 514 L 264 515 L 263 516 L 262 517 L 261 518 L 260 519 L 259 520 L 258 520 L 257 521 L 256 521 L 255 522 L 254 522 L 253 523 L 252 523 L 251 523 L 250 524 L 249 524 L 248 524 L 247 524 L 246 524 L 245 524 L 244 524 L 243 524 L 243 523 L 243 522 L 243 521 L 243 520 L 244 519 L 245 518 L 246 517 L 247 516 L 248 515 L 249 514 L 250 513 L 251 513 L 252 512 L 253 511 L 254 510 L 255 510 L 256 509 L 257 508 L 258 507 L 259 506 L 259 505 L 259 504 L 259 503 L 259 502 L 259 501 L 259 500 L 259 499 L 259 498 L 259 497 L 259 496 L 259 495 L 259 494 L 259 493 L 258 492 L 258 491 L 258 490 L 258 489 L 258 488 L 258 487 L 258 486 L 257 485 L 256 484 L 255 483 L 254 483 L 253 483 L 252 483 L 251 483 L 250 484 L 250 485 L 250 486 L 250 487 L 250 488 L 250 489 L 250 490 L 250 491 L 250 492 L 250 493 L 251 494 L 251 495 L 251 496 L 251 497 L 251 498 L 251 499 L 251 500 L 251 501 L 251 502 L 251 503 L 251 504 L 250 505 L 250 506 L 249 506 L 248 507 L 247 507 L 246 507 L 245 507 L 244 507 L 243 506 L 243 505 L 242 504 L 242 503 L 242 502 L 242 501 L 242 500 L 242 499 L 242 498 L 242 497 L 242 496 L 242 495 L 242 494 L 242 493 L 242 492 L 242 491 L 242 490 L 242 489 L 242 488 L 242 487 L 242 486 L 242 485 L 242 484 L 242 483 L 242 482 L 242 481 L 242 480 L 242 479 L 242 478 L 242 477 L 242 476 L 242 475 L 242 474 L 242 473 L 242 472 L 242 471 L 242 470 L 242 469 L 243 468 L 243 467 L 243 466 L 243 465 L 243 464 L 243 463 L 244 462 L 244 461 L 245 460 L 246 459 L 246 458 L 247 457 L 247 456 L 247 455 L 247 454 L 248 453 L 248 452 L 248 451 L 248 450 L 248 449 L 248 448 L 248 447 L 248 446 L 248 445 L 248 444 L 248 443 L 248 442 L 248 441 L 248 440 L 248 439 L 247 438 L 246 438 L 245 438 L 244 437 L 243 437 L 242 438 L 242 439 L 242 440 L 242 441 L 242 442 L 242 443 L 242 444 L 242 445 L 242 446 L 242 447 L 242 448 L 241 449 L 240 449 L 239 449 L 238 449 L 237 450 L 236 450 L 235 451 L 234 451 L 233 452 L 232 453 L 232 454 L 232 455 L 232 456 L 232 457 L 232 458 L 232 459 L 232 460 L 232 461 L 231 462 L 231 463 L 231 464 L 231 465 L 231 466 L 231 467 L 231 468 L 231 469 L 231 470 L 230 471 L 230 472 L 230 473 L 230 474 L 230 475 L 230 476 L 230 477 L 229 478 L 229 479 L 229 480 L 229 481 L 229 482 L 229 483 L 229 484 L 228 485 L 228 486 L 228 487 L 228 488 L 228 489 L 228 490 L 227 491 L 227 492 L 227 493 L 227 494 L 227 495 L 227 496 L 226 497 L 226 498 L 226 499 L 226 500 L 226 501 L 226 502 L 225 503 L 225 504 L 225 505 L 225 506 L 225 507 L 224 508 L 224 509 L 224 510 L 224 511 L 224 512 L 224 513 L 223 514 L 223 515 L 223 516 L 223 517 L 223 518 L 222 519 L 222 520 L 222 521 L 222 522 L 222 523 L 221 524 L 221 525 L 221 526 L 221 527 L 221 528 L 220 529 L 220 530 L 220 531 L 220 532 L 220 533 L 220 534 L 219 535 L 219 536 L 219 537 L 219 538 L 219 539 L 218 540 L 218 541 L 218 542 L 218 543 L 218 544 L 217 545 L 217 546 L 217 547 L 217 548 L 217 549 L 216 550 L 216 551 L 216 552 L 216 553 L 215 554 L 215 555 L 215 556 L 215 557 L 215 558 L 214 559 L 214 560 L 214 561 L 214 562 L 214 563 L 213 564 L 213 565 L 213 566 L 213 567 L 212 568 L 212 569 L 212 570 L 212 571 L 212 572 L 211 573 L 211 574 L 211 575 L 211 576 L 210 577 L 210 578 L 210 579 L 210 580 L 209 581 L 209 582 L 209 583 L 209 584 L 208 585 L 208 586 L 208 587 L 208 588 L 207 589 L 207 590 L 207 591 L 206 592 L 206 593 L 206 594 L 205 595 L 205 596 L 205 597 L 205 598 L 205 599 L 205 600 L 205 601 L 206 602 L 206 603 L 206 604 L 206 605 L 206 606 L 206 607 L 206 608 L 207 609 L 207 610 L 207 611 L 207 612 L 208 613 L 208 614 L 208 615 L 209 616 L 209 617 L 209 618 L 210 619 L 210 620 L 210 621 L 210 622 L 210 623 L 210 624 L 210 625 L 210 626 L 210 627 L 210 628 L 210 629 L 210 630 L 210 631 L 209 632 L 209 633 L 209 634 L 208 635 L 208 636 L 208 637 L 208 638 L 208 639 L 208 640 L 208 641 L 208 642 L 208 643 L 209 644 L 209 645 L 209 646 L 209 647 L 209 648 L 209 649 L 209 650 L 209 651 L 209 652 L 209 653 L 209 654 L 209 655 L 209 656 L 209 657 L 209 658 L 209 659 L 208 660 L 208 661 L 208 662 L 208 663 L 208 664 L 208 665 L 208 666 L 208 667 L 208 668 L 207 669 L 207 670 L 207 671 L 207 672 L 207 673 L 207 674 L 207 675 L 206 676 L 206 677 L 206 678 L 206 679 L 206 680 L 206 681 L 206 682 L 205 683 L 205 684 L 205 685 L 205 686 L 205 687 L 205 688 L 204 689 L 204 690 L 204 691 L 204 692 L 204 693 L 204 694 L 203 695 L 203 696 L 203 697 L 203 698 L 203 699 L 203 700 L 202 701 L 202 702 L 202 703 L 202 704 L 202 705 L 202 706 L 202 707 L 201 708 L 201 709 L 201 710 L 201 711 L 201 712 L 201 713 L 201 714 L 200 715 L 200 716 L 200 717 L 200 718 L 200 719 L 200 720 L 200 721 L 199 722 L 199 723 L 199 724 L 199 725 L 199 726 L 199 727 L 199 728 L 198 729 L 198 730 L 198 731 L 198 732 L 198 733 L 198 734 L 198 735 L 197 736 L 197 737 L 197 738 L 197 739 L 197 740 L 197 741 L 197 742 L 196 743 L 196 744 L 196 745 L 196 746 L 196 747 L 196 748 L 195 749 L 195 750 L 195 751 L 195 752 L 195 753 L 195 754 L 195 755 L 194 756 L 194 757 L 194 758 L 194 759 L 194 760 L 194 761 L 194 762 L 193 763 L 193 764 L 193 765 L 193 766 L 193 767 L 193 768 L 193 769 L 192 770 L 192 771 L 192 772 L 192 773 L 192 774 L 192 775 L 192 776 L 191 777 L 191 778 L 191 779 L 191 780 L 191 781 L 191 782 L 190 783 L 190 784 L 190 785 L 190 786 L 190 787 L 190 788 L 190 789 L 189 790 L 189 791 L 189 792 L 189 793 L 189 794 L 189 795 L 189 796 L 188 797 L 188 798 L 188 799 L 188 800 L 188 801 L 188 802 L 188 803 L 187 804 L 187 805 L 187 806 L 187 807 L 187 808 L 187 809 L 187 810 L 186 811 L 186 812 L 186 813 L 186 814 L 186 815 L 186 816 L 185 817 L 185 818 L 184 818 L 183 818 L 182 818 L 181 817 L 180 817 L 179 817 L 178 817 L 177 818 L 177 819 L 176 820 L 176 821 L 176 822 L 175 823 L 175 824 L 175 825 L 174 826 L 174 827 L 174 828 L 175 829 L 175 830 L 175 831 L 176 832 L 176 833 L 177 834 L 177 835 L 178 836 L 178 837 L 179 838 L 179 839 L 180 840 L 180 841 L 181 842 L 181 843 L 182 844 L 183 845 L 183 846 L 183 847 L 184 848 L 185 849 L 185 850 L 186 851 L 186 852 L 187 853 L 187 854 L 188 855 L 189 856 L 189 857 L 190 858 L 191 859 L 191 860 L 192 861 L 192 862 L 193 863 L 193 864 L 194 865 L 195 866 L 195 867 L 196 868 L 196 869 L 196 870 L 196 871 L 196 872 L 196 873 L 196 874 L 196 875 L 195 876 L 194 877 L 193 878 L 192 878 L 191 878 L 190 878 L 189 878 L 188 878 L 187 878 L 186 878 L 185 878 L 184 878 L 183 878 L 182 878 L 181 878 L 180 878 L 179 878 L 178 878 L 177 878 L 176 878 L 175 878 L 174 878 L 173 878 L 172 878 L 171 878 L 170 878 L 169 878 L 168 878 L 167 878 L 166 878 L 165 878 L 164 878 L 163 878 L 162 878 L 161 878 L 160 878 L 159 878 L 158 878 L 157 878 L 156 878 L 155 878 L 154 878 L 153 878 L 152 878 L 151 877 L 150 877 L 149 876 L 148 876 L 147 875 L 146 874 L 145 873 L 145 872 L 144 871 L 144 870 L 144 869 L 143 868 L 143 867 L 142 866 L 142 865 L 141 864 L 141 863 L 141 862 L 141 861 L 141 860 L 141 859 L 141 858 L 141 857 L 141 856 L 142 855 L 142 854 L 142 853 L 143 852 L 143 851 L 144 850 L 144 849 L 144 848 L 144 847 L 144 846 L 144 845 L 143 844 L 143 843 L 143 842 L 143 841 L 142 840 L 142 839 L 142 838 L 142 837 L 141 836 L 141 835 L 141 834 L 141 833 L 141 832 L 141 831 L 141 830 L 141 829 L 142 828 L 142 827 L 142 826 L 143 825 L 143 824 L 143 823 L 144 822 L 144 821 L 145 820 L 145 819 L 146 818 L 146 817 L 147 816 L 147 815 L 146 814 L 146 813 L 145 812 L 145 811 L 144 810 L 143 809 L 143 808 L 143 807 L 144 806 L 144 805 L 144 804 L 144 803 L 144 802 L 144 801 L 144 800 L 144 799 L 144 798 L 144 797 L 144 796 L 144 795 L 144 794 L 144 793 L 144 792 L 144 791 L 144 790 L 145 789 L 145 788 L 145 787 L 145 786 L 145 785 L 145 784 L 145 783 L 145 782 L 145 781 L 145 780 L 145 779 L 145 778 L 145 777 L 145 776 L 145 775 L 145 774 L 145 773 L 145 772 L 146 771 L 146 770 L 146 769 L 146 768 L 146 767 L 146 766 L 146 765 L 146 764 L 146 763 L 146 762 L 146 761 L 146 760 L 146 759 L 146 758 L 146 757 L 146 756 L 146 755 L 147 754 L 147 753 L 147 752 L 147 751 L 147 750 L 147 749 L 147 748 L 147 747 L 147 746 L 147 745 L 147 744 L 147 743 L 147 742 L 147 741 L 147 740 L 147 739 L 147 738 L 147 737 L 148 736 L 148 735 L 148 734 L 148 733 L 148 732 L 148 731 L 148 730 L 148 729 L 148 728 L 148 727 L 148 726 L 148 725 L 148 724 L 148 723 L 148 722 L 148 721 L 148 720 L 149 719 L 149 718 L 149 717 L 149 716 L 149 715 L 149 714 L 149 713 L 149 712 L 149 711 L 149 710 L 149 709 L 149 708 L 149 707 L 149 706 L 149 705 L 149 704 L 149 703 L 149 702 L 150 701 L 150 700 L 150 699 L 150 698 L 150 697 L 150 696 L 150 695 L 150 694 L 150 693 L 150 692 L 150 691 L 150 690 L 150 689 L 150 688 L 150 687 L 150 686 L 150 685 L 151 684 L 151 683 L 151 682 L 151 681 L 151 680 L 151 679 L 151 678 L 151 677 L 151 676 L 151 675 L 151 674 L 151 673 L 151 672 L 151 671 L 152 670 L 152 669 L 152 668 L 152 667 L 152 666 L 152 665 L 152 664 L 152 663 L 152 662 L 152 661 L 152 660 L 153 659 L 153 658 L 153 657 L 153 656 L 153 655 L 153 654 L 153 653 L 153 652 L 154 651 L 154 650 L 154 649 L 154 648 L 155 647 L 155 646 L 155 645 L 155 644 L 155 643 L 155 642 L 155 641 L 155 640 L 154 639 L 154 638 L 154 637 L 154 636 L 153 635 L 152 634 L 152 633 L 151 632 L 151 631 L 150 630 L 150 629 L 150 628 L 150 627 L 150 626 L 150 625 L 150 624 L 150 623 L 150 622 L 150 621 L 150 620 L 150 619 L 150 618 L 150 617 L 150 616 L 150 615 L 150 614 L 150 613 L 150 612 L 150 611 L 149 610 L 148 609 L 148 608 L 148 607 L 148 606 L 148 605 L 148 604 L 148 603 L 149 602 L 149 601 L 149 600 L 149 599 L 149 598 L 150 597 L 150 596 L 150 595 L 150 594 L 150 593 L 150 592 L 151 591 L 151 590 L 151 589 L 151 588 L 151 587 L 151 586 L 151 585 L 151 584 L 151 583 L 151 582 L 151 581 L 151 580 L 151 579 L 151 578 L 151 577 L 151 576 L 151 575 L 151 574 L 151 573 L 151 572 L 151 571 L 151 570 L 151 569 L 151 568 L 151 567 L 151 566 L 151 565 L 151 564 L 151 563 L 151 562 L 151 561 L 151 560 L 151 559 L 151 558 L 151 557 L 151 556 L 151 555 L 151 554 L 151 553 L 151 552 L 151 551 L 151 550 L 151 549 L 151 548 L 151 547 L 151 546 L 151 545 L 151 544 L 151 543 L 151 542 L 151 541 L 151 540 L 151 539 L 150 538 L 150 537 L 150 536 L 150 535 L 150 534 L 150 533 L 150 532 L 150 531 L 150 530 L 150 529 L 150 528 L 150 527 L 150 526 L 150 525 L 150 524 L 150 523 L 150 522 L 150 521 L 150 520 L 150 519 L 150 518 L 150 517 L 150 516 L 150 515 L 150 514 L 150 513 L 150 512 L 149 511 L 149 510 L 149 509 L 149 508 L 149 507 L 149 506 L 149 505 L 149 504 L 149 503 L 149 502 L 149 501 L 149 500 L 149 499 L 149 498 L 149 497 L 149 496 L 149 495 L 149 494 L 149 493 L 149 492 L 149 491 L 149 490 L 149 489 L 149 488 L 149 487 L 149 486 L 149 485 L 149 484 L 149 483 L 148 482 L 147 483 L 146 484 L 146 485 L 145 486 L 145 487 L 145 488 L 145 489 L 145 490 L 144 491 L 144 492 L 144 493 L 144 494 L 144 495 L 143 496 L 143 497 L 143 498 L 143 499 L 143 500 L 142 501 L 142 502 L 142 503 L 142 504 L 142 505 L 141 506 L 141 507 L 141 508 L 141 509 L 141 510 L 140 511 L 140 512 L 140 513 L 140 514 L 140 515 L 139 516 L 139 517 L 139 518 L 139 519 L 139 520 L 139 521 L 138 522 L 138 523 L 138 524 L 138 525 L 138 526 L 137 527 L 137 528 L 137 529 L 137 530 L 137 531 L 137 532 L 136 533 L 136 534 L 136 535 L 136 536 L 136 537 L 135 538 L 135 539 L 135 540 L 135 541 L 135 542 L 135 543 L 134 544 L 134 545 L 134 546 L 134 547 L 134 548 L 134 549 L 134 550 L 133 551 L 133 552 L 133 553 L 133 554 L 133 555 L 133 556 L 133 557 L 133 558 L 132 559 L 132 560 L 132 561 L 132 562 L 132 563 L 132 564 L 132 565 L 132 566 L 131 567 L 131 568 L 131 569 L 131 570 L 131 571 L 131 572 L 131 573 L 131 574 L 131 575 L 130 576 L 130 577 L 130 578 L 130 579 L 130 580 L 130 581 L 130 582 L 130 583 L 130 584 L 129 585 L 129 586 L 129 587 L 129 588 L 129 589 L 129 590 L 129 591 L 129 592 L 129 593 L 128 594 L 128 595 L 128 596 L 128 597 L 128 598 L 128 599 L 128 600 L 128 601 L 127 602 L 127 603 L 127 604 L 127 605 L 127 606 L 127 607 L 127 608 L 126 609 L 126 610 L 126 611 L 126 612 L 126 613 L 125 614 L 125 615 L 125 616 L 125 617 L 124 618 L 124 619 L 124 620 L 124 621 L 124 622 L 123 623 L 123 624 L 123 625 L 123 626 L 123 627 L 123 628 L 123 629 L 123 630 L 123 631 L 124 632 L 124 633 L 124 634 L 124 635 L 124 636 L 124 637 L 124 638 L 124 639 L 125 640 L 125 641 L 125 642 L 125 643 L 126 644 L 126 645 L 126 646 L 126 647 L 127 648 L 127 649 L 127 650 L 127 651 L 128 652 L 128 653 L 128 654 L 129 655 L 129 656 L 129 657 L 129 658 L 129 659 L 129 660 L 129 661 L 129 662 L 129 663 L 129 664 L 129 665 L 129 666 L 129 667 L 129 668 L 129 669 L 129 670 L 129 671 L 128 672 L 128 673 L 128 674 L 128 675 L 128 676 L 128 677 L 127 678 L 127 679 L 127 680 L 127 681 L 127 682 L 126 683 L 126 684 L 126 685 L 126 686 L 125 687 L 125 688 L 125 689 L 126 690 L 126 691 L 127 692 L 128 693 L 128 694 L 129 695 L 129 696 L 129 697 L 129 698 L 129 699 L 129 700 L 128 701 L 128 702 L 127 703 L 126 704 L 125 705 L 124 706 L 124 707 L 125 708 L 125 709 L 125 710 L 126 711 L 126 712 L 127 713 L 127 714 L 127 715 L 127 716 L 127 717 L 127 718 L 128 719 L 128 720 L 128 721 L 128 722 L 128 723 L 128 724 L 128 725 L 128 726 L 129 727 L 129 728 L 129 729 L 129 730 L 129 731 L 129 732 L 130 733 L 131 734 L 132 735 L 133 736 L 134 737 L 135 738 L 135 739 L 136 740 L 136 741 L 137 742 L 137 743 L 138 744 L 138 745 L 138 746 L 139 747 L 139 748 L 139 749 L 140 750 L 140 751 L 140 752 L 140 753 L 140 754 L 140 755 L 140 756 L 140 757 L 140 758 L 140 759 L 140 760 L 140 761 L 140 762 L 140 763 L 140 764 L 140 765 L 139 766 L 139 767 L 138 768 L 138 769 L 138 770 L 137 771 L 137 772 L 136 773 L 136 774 L 136 775 L 135 776 L 135 777 L 135 778 L 134 779 L 133 779 L 132 780 L 131 780 L 130 781 L 129 782 L 128 782 L 127 783 L 127 784 L 126 785 L 126 786 L 126 787 L 125 788 L 125 789 L 125 790 L 125 791 L 125 792 L 125 793 L 125 794 L 125 795 L 125 796 L 125 797 L 125 798 L 125 799 L 125 800 L 125 801 L 125 802 L 125 803 L 125 804 L 125 805 L 125 806 L 126 807 L 126 808 L 126 809 L 126 810 L 126 811 L 126 812 L 126 813 L 126 814 L 126 815 L 127 816 L 127 817 L 127 818 L 127 819 L 127 820 L 127 821 L 127 822 L 127 823 L 126 824 L 126 825 L 126 826 L 125 827 L 125 828 L 124 829 L 124 830 L 123 831 L 123 832 L 122 833 L 122 834 L 121 835 L 120 836 L 119 837 L 119 838 L 118 839 L 117 840 L 116 841 L 115 842 L 115 843 L 114 844 L 113 845 L 112 846 L 111 847 L 110 848 L 109 848 L 108 849 L 107 849 L 106 850 L 105 850 L 104 850 L 103 851 L 102 851 L 101 851 L 100 851 L 99 851 L 98 851 L 97 851 L 96 851 L 95 851 L 94 851 L 93 851 L 92 850 L 91 850 L 90 850 L 89 850 L 88 849 L 87 849 L 86 849 L 85 848 L 84 848 L 83 847 L 82 847 L 81 847 L 80 846 L 79 845 L 79 844 L 78 843 L 78 842 L 78 841 L 78 840 L 78 839 L 77 838 L 77 837 L 77 836 L 77 835 L 77 834 L 77 833 L 77 832 L 77 831 L 77 830 L 77 829 L 77 828 L 78 827 L 78 826 L 78 825 L 78 824 L 78 823 L 78 822 L 78 821 L 78 820 L 79 819 L 79 818 L 79 817 L 79 816 L 79 815 L 79 814 L 80 813 L 80 812 L 80 811 L 80 810 L 80 809 L 81 808 L 81 807 L 81 806 L 81 805 L 82 804 L 82 803 L 82 802 L 82 801 L 83 800 L 83 799 L 84 798 L 84 797 L 84 796 L 85 795 L 85 794 L 85 793 L 86 792 L 86 791 L 86 790 L 87 789 L 87 788 L 87 787 L 87 786 L 88 785 L 88 784 L 88 783 L 89 782 L 89 781 L 89 780 L 89 779 L 90 778 L 90 777 L 90 776 L 91 775 L 91 774 L 91 773 L 91 772 L 92 771 L 92 770 L 92 769 L 93 768 L 93 767 L 93 766 L 93 765 L 93 764 L 92 763 L 91 763 L 90 762 L 89 761 L 88 760 L 88 759 L 88 758 L 88 757 L 88 756 L 88 755 L 88 754 L 88 753 L 88 752 L 88 751 L 88 750 L 88 749 L 88 748 L 88 747 L 88 746 L 88 745 L 88 744 L 88 743 L 88 742 L 88 741 L 88 740 L 88 739 L 88 738 L 88 737 L 87 736 L 87 735 L 87 734 L 87 733 L 87 732 L 87 731 L 87 730 L 87 729 L 87 728 L 87 727 L 87 726 L 87 725 L 87 724 L 87 723 L 87 722 L 87 721 L 87 720 L 87 719 L 87 718 L 87 717 L 87 716 L 87 715 L 87 714 L 87 713 L 87 712 L 87 711 L 87 710 L 87 709 L 87 708 L 87 707 L 86 706 L 86 705 L 86 704 L 86 703 L 86 702 L 86 701 L 85 700 L 85 699 L 85 698 L 85 697 L 84 696 L 84 695 L 84 694 L 83 693 L 83 692 L 83 691 L 82 690 L 82 689 L 82 688 L 82 687 L 81 686 L 81 685 L 81 684 L 80 683 L 80 682 L 80 681 L 80 680 L 79 679 L 79 678 L 79 677 L 78 676 L 78 675 L 78 674 L 78 673 L 77 672 L 77 671 L 77 670 L 77 669 L 76 668 L 76 667 L 76 666 L 75 665 L 75 664 L 75 663 L 75 662 L 74 661 L 74 660 L 74 659 L 74 658 L 74 657 L 73 656 L 73 655 L 73 654 L 73 653 L 73 652 L 72 651 L 72 650 L 72 649 L 72 648 L 72 647 L 72 646 L 72 645 L 71 644 L 71 643 L 71 642 L 71 641 L 71 640 L 71 639 L 71 638 L 71 637 L 71 636 L 71 635 L 71 634 L 71 633 L 71 632 L 71 631 L 70 630 L 70 629 L 70 628 L 70 627 L 70 626 L 70 625 L 70 624 L 70 623 L 71 622 L 71 621 L 71 620 L 71 619 L 71 618 L 71 617 L 71 616 L 71 615 L 71 614 L 71 613 L 72 612 L 72 611 L 72 610 L 72 609 L 72 608 L 72 607 L 72 606 L 72 605 L 72 604 L 71 603 L 71 602 L 71 601 L 71 600 L 71 599 L 70 598 L 70 597 L 70 596 L 70 595 L 70 594 L 69 593 L 69 592 L 69 591 L 68 590 L 68 589 L 68 588 L 68 587 L 67 586 L 67 585 L 67 584 L 66 583 L 66 582 L 66 581 L 66 580 L 66 579 L 66 578 L 66 577 L 65 576 L 65 575 L 65 574 L 65 573 L 65 572 L 65 571 L 65 570 L 65 569 L 65 568 L 65 567 L 65 566 L 64 565 L 64 564 L 64 563 L 64 562 L 64 561 L 64 560 L 64 559 L 64 558 L 64 557 L 64 556 L 64 555 L 64 554 L 64 553 L 63 552 L 63 551 L 63 550 L 63 549 L 63 548 L 63 547 L 63 546 L 63 545 L 63 544 L 63 543 L 63 542 L 63 541 L 63 540 L 63 539 L 63 538 L 62 537 L 62 536 L 62 535 L 62 534 L 62 533 L 62 532 L 62 531 L 62 530 L 62 529 L 62 528 L 62 527 L 62 526 L 62 525 L 62 524 L 62 523 L 62 522 L 62 521 L 61 520 L 61 519 L 61 518 L 61 517 L 61 516 L 61 515 L 61 514 L 61 513 L 61 512 L 61 511 L 61 510 L 61 509 L 61 508 L 61 507 L 61 506 L 61 505 L 61 504 L 61 503 L 61 502 L 61 501 L 60 500 L 60 499 L 60 498 L 60 497 L 60 496 L 60 495 L 60 494 L 60 493 L 60 492 L 60 491 L 60 490 L 60 489 L 60 488 L 60 487 L 60 486 L 60 485 L 60 484 L 60 483 L 60 482 L 60 481 L 60 480 L 60 479 L 59 478 L 59 477 L 59 476 L 59 475 L 59 474 L 59 473 L 59 472 L 59 471 L 59 470 L 59 469 L 59 468 L 59 467 L 59 466 L 59 465 L 59 464 L 59 463 L 59 462 L 59 461 L 59 460 L 59 459 L 59 458 L 59 457 L 59 456 L 59 455 L 59 454 L 59 453 L 59 452 L 59 451 L 59 450 L 59 449 L 59 448 L 59 447 L 59 446 L 59 445 L 59 444 L 59 443 L 58 442 L 58 441 L 58 440 L 58 439 L 57 438 L 57 437 L 56 436 L 56 435 L 55 434 L 54 433 L 53 432 L 52 431 L 51 430 L 50 430 L 49 430 L 48 429 L 47 429 L 46 429 L 45 428 L 45 427 L 44 426 L 44 425 L 43 424 L 43 423 L 42 422 L 42 421 L 42 420 L 41 419 L 41 418 L 41 417 L 41 416 L 40 415 L 40 414 L 40 413 L 40 412 L 39 411 L 38 410 L 37 410 L 36 410 L 35 410 L 34 410 L 33 409 L 33 408 L 32 407 L 31 406 L 31 405 L 30 404 L 30 403 L 29 402 L 28 401 L 27 401 L 26 401 L 25 401 L 24 401 L 24 400 L 24 399 L 23 398 L 23 397 L 23 396 L 23 395 L 23 394 L 22 393 L 22 392 L 22 391 L 22 390 L 22 389 L 21 388 L 21 387 L 21 386 L 21 385 L 20 384 L 20 383 L 20 382 L 20 381 L 20 380 L 19 379 L 19 378 L 19 377 L 19 376 L 18 375 L 18 374 L 18 373 L 18 372 L 18 371 L 17 370 L 17 369 L 17 368 L 17 367 L 16 366 L 16 365 L 16 364 L 16 363 L 16 362 L 15 361 L 15 360 L 15 359 L 15 358 L 15 357 L 14 356 L 14 355 L 14 354 L 14 353 L 13 352 L 13 351 L 13 350 L 13 349 L 13 348 L 12 347 L 12 346 L 12 345 L 12 344 L 12 343 L 11 342 L 11 341 L 11 340 L 11 339 L 10 338 L 10 337 L 10 336 L 10 335 L 10 334 L 9 333 L 9 332 L 9 331 L 9 330 L 9 329 L 8 328 L 8 327 L 8 326 L 8 325 L 8 324 L 7 323 L 7 322 L 7 321 L 7 320 L 7 319 L 6 318 L 6 317 L 6 316 L 6 315 L 6 314 L 5 313 L 5 312 L 5 311 L 5 310 L 4 309 L 4 308 L 4 307 L 4 306 L 4 305 L 4 304 L 3 303 L 3 302 L 3 301 L 3 300 L 3 299 L 2 298 L 2 297 L 2 296 L 2 295 L 2 294 L 1 293 L 1 292 L 1 291 L 1 290 L 1 289 L 1 288 L 1 287 L 0 286 L 0 285 L 1 284 L 1 283 L 1 282 L 1 281 L 1 280 L 2 279 L 2 278 L 3 277 L 3 276 L 4 275 L 4 274 L 5 273 L 5 272 L 6 271 L 6 270 L 7 269 L 7 268 L 8 267 L 8 266 L 8 265 L 9 264 L 9 263 L 10 262 L 10 261 L 10 260 L 11 259 L 11 258 L 12 257 L 12 256 L 12 255 L 13 254 L 13 253 L 13 252 L 14 251 L 14 250 L 14 249 L 15 248 L 15 247 L 15 246 L 15 245 L 16 244 L 16 243 L 16 242 L 17 241 L 17 240 L 17 239 L 17 238 L 18 237 L 18 236 L 18 235 L 19 234 L 19 233 L 19 232 L 20 231 L 20 230 L 20 229 L 21 228 L 21 227 L 21 226 L 22 225 L 22 224 L 22 223 L 22 222 L 23 221 L 23 220 L 23 219 L 24 218 L 24 217 L 24 216 L 25 215 L 25 214 L 25 213 L 26 212 L 26 211 L 26 210 L 27 209 L 27 208 L 28 207 L 28 206 L 28 205 L 28 204 L 29 203 L 29 202 L 29 201 L 30 200 L 30 199 L 31 198 L 31 197 L 31 196 L 32 195 L 32 194 L 32 193 L 33 192 L 33 191 L 33 190 L 34 189 L 34 188 L 35 187 L 35 186 L 35 185 L 36 184 L 36 183 L 36 182 L 37 181 L 37 180 L 38 179 L 38 178 L 38 177 L 39 176 L 39 175 L 40 174 L 40 173 L 40 172 L 41 171 L 41 170 L 42 169 L 42 168 L 42 167 L 43 166 L 43 165 L 44 164 L 44 163 L 45 162 L 45 161 L 46 160 L 46 159 L 47 158 L 47 157 L 48 156 L 48 155 L 49 154 L 49 153 L 50 152 L 51 151 L 52 150 L 52 149 L 53 148 L 54 147 L 55 146 L 56 146 L 57 145 L 58 144 L 59 143 L 60 143 L 61 142 L 62 141 L 63 141 L 64 140 L 65 140 L 66 139 L 67 139 L 68 138 L 69 138 L 70 138 L 71 137 L 72 137 L 73 137 L 74 136 L 75 136 L 76 136 L 77 135 L 78 135 L 79 135 L 80 134 L 81 134 L 82 134 L 83 133 L 84 133 L 85 133 L 86 132 L 87 132 L 88 132 L 89 131 L 90 131 L 91 130 L 92 130 L 93 130 L 94 129 L 95 129 L 96 128 L 97 128 L 98 127 L 99 127 L 100 126 L 101 126 L 102 125 L 103 124 L 104 124 L 105 123 L 106 123 L 107 122 L 108 122 L 109 121 L 110 120 L 111 120 L 112 119 L 113 118 L 114 118 L 115 117 L 116 116 L 115 115 L 114 115 L 113 114 L 112 113 L 112 112 L 111 111 L 110 110 L 110 109 L 110 108 L 110 107 L 109 106 L 109 105 L 109 104 L 109 103 L 109 102 L 108 101 L 108 100 L 108 99 L 108 98 L 107 97 L 107 96 L 107 95 L 107 94 L 107 93 L 106 92 L 106 91 L 106 90 L 106 89 L 106 88 L 105 87 L 105 86 L 105 85 L 105 84 L 105 83 L 104 82 L 104 81 L 104 80 L 104 79 L 104 78 L 104 77 L 104 76 L 104 75 L 104 74 L 104 73 L 104 72 L 104 71 L 105 70 L 105 69 L 105 68 L 105 67 L 105 66 L 105 65 L 105 64 L 105 63 L 105 62 L 105 61 L 104 60 L 104 59 L 104 58 L 103 57 L 103 56 L 102 55 L 102 54 L 102 53 L 102 52 L 102 51 L 102 50 L 102 49 L 102 48 L 102 47 L 102 46 L 103 45 L 103 44 L 103 43 L 103 42 L 103 41 L 104 40 L 104 39 L 104 38 L 104 37 L 103 36 L 102 35 L 101 35 L 100 34 L 99 33 L 98 33 L 97 32 L 96 32 L 95 31 L 94 31 L 93 30 L 93 29 L 93 28 L 93 27 L 93 26 L 92 25 Z" fill="currentColor" />
  <path d="M 236 302 L 236 301 L 236 300 L 236 299 L 236 298 L 236 297 L 236 296 L 235 295 L 235 294 L 235 293 L 235 292 L 235 291 L 235 290 L 234 289 L 234 288 L 234 287 L 234 286 L 234 285 L 234 284 L 233 283 L 233 282 L 233 281 L 233 280 L 232 279 L 232 278 L 231 277 L 231 276 L 231 275 L 231 274 L 230 273 L 230 272 L 230 271 L 230 270 L 229 269 L 229 268 L 229 267 L 229 266 L 228 265 L 227 266 L 227 267 L 226 268 L 226 269 L 226 270 L 226 271 L 225 272 L 225 273 L 225 274 L 225 275 L 224 276 L 224 277 L 224 278 L 223 279 L 223 280 L 223 281 L 223 282 L 222 283 L 222 284 L 222 285 L 222 286 L 222 287 L 221 288 L 221 289 L 221 290 L 221 291 L 221 292 L 221 293 L 221 294 L 221 295 L 221 296 L 221 297 L 221 298 L 222 299 L 222 300 L 222 301 L 222 302 L 222 303 L 222 304 L 222 305 L 222 306 L 222 307 L 222 308 L 222 309 L 223 310 L 223 311 L 223 312 L 223 313 L 223 314 L 223 315 L 223 316 L 223 317 L 224 318 L 224 319 L 224 320 L 224 321 L 224 322 L 224 323 L 224 324 L 225 325 L 225 326 L 225 327 L 225 328 L 225 329 L 225 330 L 226 331 L 226 332 L 226 333 L 226 334 L 226 335 L 227 336 L 227 337 L 227 338 L 227 339 L 227 340 L 228 341 L 228 342 L 228 343 L 229 344 L 229 345 L 229 346 L 230 347 L 230 348 L 230 349 L 231 350 L 231 351 L 231 352 L 231 353 L 232 354 L 232 355 L 232 356 L 232 357 L 233 358 L 233 359 L 233 360 L 233 361 L 233 362 L 234 363 L 234 364 L 234 365 L 234 366 L 234 367 L 234 368 L 235 369 L 235 370 L 235 371 L 235 372 L 235 373 L 235 374 L 235 375 L 236 376 L 236 377 L 236 378 L 236 379 L 236 380 L 236 381 L 236 382 L 236 383 L 237 384 L 237 385 L 237 386 L 237 387 L 237 388 L 237 389 L 237 390 L 237 391 L 237 392 L 237 393 L 238 394 L 238 395 L 238 396 L 238 397 L 238 398 L 238 399 L 238 400 L 238 401 L 238 402 L 238 403 L 238 404 L 238 405 L 238 406 L 238 407 L 238 408 L 239 409 L 239 410 L 239 411 L 239 412 L 239 413 L 239 414 L 239 415 L 239 416 L 239 417 L 239 418 L 239 419 L 239 420 L 239 421 L 239 422 L 239 423 L 239 424 L 240 425 L 241 425 L 242 425 L 243 424 L 243 423 L 243 422 L 243 421 L 243 420 L 243 419 L 243 418 L 243 417 L 243 416 L 243 415 L 243 414 L 243 413 L 243 412 L 243 411 L 243 410 L 243 409 L 243 408 L 243 407 L 243 406 L 243 405 L 243 404 L 243 403 L 243 402 L 243 401 L 243 400 L 243 399 L 243 398 L 243 397 L 243 396 L 243 395 L 243 394 L 243 393 L 243 392 L 243 391 L 243 390 L 243 389 L 243 388 L 243 387 L 243 386 L 243 385 L 243 384 L 243 383 L 243 382 L 243 381 L 243 380 L 243 379 L 243 378 L 243 377 L 243 376 L 243 375 L 243 374 L 243 373 L 243 372 L 243 371 L 243 370 L 243 369 L 243 368 L 243 367 L 243 366 L 243 365 L 243 364 L 243 363 L 243 362 L 243 361 L 243 360 L 242 359 L 242 358 L 242 357 L 242 356 L 242 355 L 242 354 L 242 353 L 242 352 L 242 351 L 242 350 L 242 349 L 242 348 L 242 347 L 241 346 L 241 345 L 241 344 L 241 343 L 241 342 L 241 341 L 241 340 L 241 339 L 241 338 L 241 337 L 240 336 L 240 335 L 240 334 L 240 333 L 240 332 L 240 331 L 240 330 L 240 329 L 240 328 L 240 327 L 239 326 L 239 325 L 239 324 L 239 323 L 239 322 L 239 321 L 239 320 L 239 319 L 239 318 L 238 317 L 238 316 L 238 315 L 238 314 L 238 313 L 238 312 L 238 311 L 238 310 L 237 309 L 237 308 L 237 307 L 237 306 L 237 305 L 237 304 L 237 303 L 236 302 Z" fill="currentColor" />
</svg>